# xmcd CD database file
#
# Track frame offsets:
#	150
#	13066
#	30310
#	43240
#	57234
#	66027
#	74812
#	88933
#	107525
#	128778
#	144023
#	158545
#	177046
#	191631
#	206078
#	223216
#	238889
#	252370
#	268462
#	280900
#
# Disc length: 3874 seconds
#
# Revision: 0
# Processed by: cddbd v1.5.2PL0 Copyright (c) Steve Scherf et al.
# Submitted via: CDex 1.70beta2
#
DISCID=330f2014
DTITLE=Jones Country - Jones Country JCY-023
DYEAR=0000
DGENRE=Country
TTITLE0=Kathy Mattea/Train Of Memories
TTITLE1=C W McCall/Convoy
TTITLE2=Charly McClain/Sleepin' With The Radio On
TTITLE3=Ronnie McDowell/Love Texas
TTITLE4=Roger Miller/My Uncle Used To Love Me But She Died
TTITLE5=Roger Miller/You Can't Rollerskate In A Buffalo Herd
TTITLE6=Gary Morris/Don't Look Back
TTITLE7=Gary Morris/Second Hand Heart
TTITLE8=Gary Morris/Wind Beneath My Wings
TTITLE9=Michael Martin Murphey/Don't Count The Rainy Days
TTITLE10=Michael Martin Murphey/From The Word Go
TTITLE11=Juice Newton/Angel Of The Morning
TTITLE12=Juice Newton/Love's Been A Little Bit Hard On Me
TTITLE13=Juice Newton/Tell Me True
TTITLE14=Nitty Gritty Dirt Band/An American Dream
TTITLE15=Oak Ridge Boys/Heart Of Mine
TTITLE16=Roy Orbison/Oh Pretty Woman
TTITLE17=Roy Orbison/You Got It
TTITLE18=Elvis Presley/In The Ghetto
TTITLE19=Elvis Presley/Return To Sender
EXTD=YEAR: 0000
EXTT0=
EXTT1=
EXTT2=
EXTT3=
EXTT4=
EXTT5=
EXTT6=
EXTT7=
EXTT8=
EXTT9=
EXTT10=
EXTT11=
EXTT12=
EXTT13=
EXTT14=
EXTT15=
EXTT16=
EXTT17=
EXTT18=
EXTT19=
PLAYORDER=
